<svg width="32" height="32" viewBox="0 0 32 32" fill="none" xmlns="http://www.w3.org/2000/svg">
<path d="M22.6724 5.33692H28.0064C28.3601 5.33692 28.6993 5.47742 28.9494 5.72749C29.1994 5.97757 29.3399 6.31676 29.3399 6.67042V28.0064C29.3399 28.3601 29.1994 28.6993 28.9494 28.9494C28.6993 29.1994 28.3601 29.3399 28.0064 29.3399H4.00342C3.64976 29.3399 3.31057 29.1994 3.06049 28.9494C2.81042 28.6993 2.66992 28.3601 2.66992 28.0064V6.67042C2.66992 6.31676 2.81042 5.97757 3.06049 5.72749C3.31057 5.47742 3.64976 5.33692 4.00342 5.33692H9.33742V2.66992H12.0044V5.33692H20.0054V2.66992H22.6724V5.33692ZM20.0054 8.00392H12.0044V10.6709H9.33742V8.00392H5.33692V13.3379H26.6729V8.00392H22.6724V10.6709H20.0054V8.00392ZM26.6729 16.0049H5.33692V26.6729H26.6729V16.0049Z" fill="#001018"/>
</svg>
