<svg width="15" height="15" viewBox="0 0 15 15" fill="none" xmlns="http://www.w3.org/2000/svg">
<path fill-rule="evenodd" clip-rule="evenodd" d="M14.6668 6.0752C14.6668 3.74186 13.0255 2.0752 11.0002 2.0752C9.76016 2.0752 8.66683 2.74186 8.00016 3.40853C7.3335 2.74186 6.24016 2.0752 5.00016 2.0752C3.00016 2.0752 1.3335 3.74186 1.3335 6.0752C1.3335 10.4758 5.7796 13.0979 7.68413 14.2212C7.79928 14.2891 7.90514 14.3515 8.00016 14.4085C8.09519 14.3515 8.20105 14.2891 8.3162 14.2212C10.2207 13.0979 14.6668 10.4758 14.6668 6.0752ZM10.2362 11.3439C9.74016 11.7385 9.21016 12.1072 8.62283 12.4779C8.4235 12.6032 8.22616 12.7239 8.00016 12.8585C7.77416 12.7239 7.57683 12.6032 7.3775 12.4772C6.79016 12.1072 6.26016 11.7385 5.7635 11.3439C3.7775 9.76386 2.66683 8.03786 2.66683 6.0752C2.66683 4.51253 3.70683 3.40853 5.00016 3.40853C5.7175 3.40853 6.4935 3.78853 7.0575 4.3512L8.00016 5.29386L8.94283 4.3512C9.50683 3.78853 10.2828 3.40853 11.0002 3.40853C12.3088 3.40853 13.3335 4.50186 13.3335 6.0752C13.3335 8.03719 12.2235 9.76386 10.2362 11.3439Z" fill="white"/>
</svg>
