<svg width="16" height="16" viewBox="0 0 16 16" fill="none" xmlns="http://www.w3.org/2000/svg">
<g id="Time / clock">
<path id="Vector" d="M8.00017 1.33337C6.68162 1.33337 5.39269 1.72437 4.29636 2.45691C3.20004 3.18945 2.34555 4.23064 1.84097 5.44882C1.33638 6.66699 1.20436 8.00744 1.4616 9.30064C1.71883 10.5938 2.35377 11.7817 3.28612 12.7141C4.21847 13.6464 5.40636 14.2814 6.69956 14.5386C7.99277 14.7958 9.33322 14.6638 10.5514 14.1592C11.7696 13.6547 12.8108 12.8002 13.5433 11.7038C14.2758 10.6075 14.6668 9.31858 14.6668 8.00004C14.6668 7.12456 14.4944 6.25766 14.1594 5.44882C13.8243 4.63998 13.3333 3.90505 12.7142 3.286C12.0952 2.66694 11.3602 2.17588 10.5514 1.84084C9.74255 1.50581 8.87565 1.33337 8.00017 1.33337ZM8.00017 13.3334C6.94533 13.3334 5.91419 13.0206 5.03712 12.4345C4.16006 11.8485 3.47648 11.0156 3.07281 10.041C2.66914 9.06648 2.56352 7.99412 2.76931 6.95956C2.9751 5.92499 3.48305 4.97468 4.22893 4.2288C4.97481 3.48292 5.92512 2.97497 6.95968 2.76919C7.99425 2.5634 9.06661 2.66902 10.0411 3.07268C11.0157 3.47635 11.8486 4.15994 12.4347 5.037C13.0207 5.91406 13.3335 6.94521 13.3335 8.00004C13.3335 9.41453 12.7716 10.7711 11.7714 11.7713C10.7712 12.7715 9.41465 13.3334 8.00017 13.3334ZM9.40017 6.42004L8.66683 6.84671V4.66671C8.66683 4.4899 8.59659 4.32033 8.47157 4.1953C8.34655 4.07028 8.17698 4.00004 8.00017 4.00004C7.82336 4.00004 7.65379 4.07028 7.52876 4.1953C7.40374 4.32033 7.3335 4.4899 7.3335 4.66671V8.00004C7.3335 8.00004 7.3335 8.00004 7.3335 8.04004C7.33037 8.08443 7.33037 8.12899 7.3335 8.17337C7.34382 8.21432 7.35719 8.25443 7.3735 8.29337C7.3735 8.29337 7.3735 8.29337 7.3735 8.33337C7.40534 8.38067 7.44102 8.42526 7.48017 8.46671C7.53402 8.52011 7.59731 8.56306 7.66683 8.59337H7.72017C7.807 8.63803 7.90259 8.66306 8.00017 8.66671C8.07786 8.66448 8.15458 8.64869 8.22683 8.62004H8.28683H8.3335L10.0668 7.62004C10.2207 7.53164 10.3331 7.38574 10.3793 7.21446C10.4256 7.04318 10.4019 6.86053 10.3135 6.70671C10.2251 6.55288 10.0792 6.44048 9.90792 6.39422C9.73664 6.34796 9.55399 6.37163 9.40017 6.46004V6.42004Z" fill="black"/>
</g>
</svg>
